<svg xmlns="http://www.w3.org/2000/svg" width="120" height="43" viewBox="0 0 120 43" fill="none"><path d="M21.1249 42.2497C32.7918 42.2497 42.2497 32.7918 42.2497 21.1249C42.2497 9.45792 32.7918 0 21.1249 0C9.45792 0 0 9.45792 0 21.1249C0 32.7918 9.45792 42.2497 21.1249 42.2497Z" fill="#F6851F"></path><path d="M22.1779 23.7234L19.0341 20.5788L28.0994 11.5117H11.5098V31.2469H31.2449V14.6564L22.1779 23.7234Z" fill="white"></path><path d="M51.2638 31.6572V11.7999H59.6322C61.7503 11.7999 63.6132 12.2159 65.2207 13.048C66.8471 13.8801 68.1047 15.0432 68.9936 16.5373C69.9013 18.0313 70.3552 19.7617 70.3552 21.7285C70.3552 23.6954 69.9013 25.4258 68.9936 26.9198C68.1047 28.4139 66.8471 29.5769 65.2207 30.409C63.6132 31.2412 61.7503 31.6572 59.6322 31.6572H51.2638ZM54.1005 29.1892H59.462C61.1073 29.1892 62.5257 28.8772 63.7172 28.2531C64.9275 27.629 65.8637 26.7591 66.5256 25.6433C67.1875 24.5086 67.5184 23.2037 67.5184 21.7285C67.5184 20.2345 67.1875 18.9296 66.5256 17.8138C65.8637 16.698 64.9275 15.8281 63.7172 15.204C62.5257 14.5799 61.1073 14.2678 59.462 14.2678H54.1005V29.1892ZM80.7427 31.8274C79.2297 31.8274 77.887 31.4965 76.7144 30.8346C75.5419 30.1727 74.6152 29.2649 73.9344 28.1113C73.2536 26.9387 72.9132 25.6149 72.9132 24.1398C72.9132 22.6458 73.2536 21.3219 73.9344 20.1683C74.6152 19.0147 75.5419 18.1164 76.7144 17.4734C77.887 16.8115 79.2297 16.4805 80.7427 16.4805C82.2367 16.4805 83.57 16.8115 84.7425 17.4734C85.9339 18.1164 86.8606 19.0147 87.5225 20.1683C88.2034 21.303 88.5438 22.6268 88.5438 24.1398C88.5438 25.6338 88.2034 26.9576 87.5225 28.1113C86.8606 29.2649 85.9339 30.1727 84.7425 30.8346C83.57 31.4965 82.2367 31.8274 80.7427 31.8274ZM80.7427 29.4445C81.7072 29.4445 82.5676 29.2271 83.3241 28.7921C84.0995 28.3571 84.7047 27.7425 85.1396 26.9482C85.5746 26.135 85.7921 25.1989 85.7921 24.1398C85.7921 23.0618 85.5746 22.1351 85.1396 21.3598C84.7047 20.5655 84.0995 19.9508 83.3241 19.5159C82.5676 19.0809 81.7072 18.8634 80.7427 18.8634C79.7782 18.8634 78.9177 19.0809 78.1612 19.5159C77.4047 19.9508 76.7995 20.5655 76.3457 21.3598C75.8918 22.1351 75.6648 23.0618 75.6648 24.1398C75.6648 25.1989 75.8918 26.135 76.3457 26.9482C76.7995 27.7425 77.4047 28.3571 78.1612 28.7921C78.9177 29.2271 79.7782 29.4445 80.7427 29.4445ZM98.863 31.8274C97.3311 31.8274 95.96 31.4965 94.7496 30.8346C93.5582 30.1727 92.6221 29.2649 91.9412 28.1113C91.2604 26.9576 90.92 25.6338 90.92 24.1398C90.92 22.6458 91.2604 21.3219 91.9412 20.1683C92.6221 19.0147 93.5582 18.1164 94.7496 17.4734C95.96 16.8115 97.3311 16.4805 98.863 16.4805C100.225 16.4805 101.435 16.7547 102.494 17.3032C103.572 17.8327 104.404 18.627 104.99 19.6861L102.92 21.0193C102.428 20.2818 101.823 19.7428 101.104 19.4024C100.404 19.0431 99.6478 18.8634 98.8346 18.8634C97.8512 18.8634 96.9718 19.0809 96.1964 19.5159C95.421 19.9508 94.8064 20.5655 94.3525 21.3598C93.8986 22.1351 93.6717 23.0618 93.6717 24.1398C93.6717 25.2178 93.8986 26.1539 94.3525 26.9482C94.8064 27.7425 95.421 28.3571 96.1964 28.7921C96.9718 29.2271 97.8512 29.4445 98.8346 29.4445C99.6478 29.4445 100.404 29.2743 101.104 28.9339C101.823 28.5746 102.428 28.0262 102.92 27.2886L104.99 28.5935C104.404 29.6337 103.572 30.4374 102.494 31.0048C101.435 31.5532 100.225 31.8274 98.863 31.8274ZM112.828 31.8274C111.58 31.8274 110.388 31.6572 109.254 31.3168C108.138 30.9764 107.259 30.5603 106.616 30.0686L107.75 27.9127C108.393 28.3477 109.188 28.7164 110.133 29.019C111.079 29.3216 112.043 29.4729 113.027 29.4729C114.294 29.4729 115.201 29.2933 115.75 28.9339C116.317 28.5746 116.601 28.0734 116.601 27.4304C116.601 26.9576 116.431 26.5889 116.09 26.3241C115.75 26.0593 115.296 25.8608 114.729 25.7284C114.18 25.596 113.566 25.4825 112.885 25.388C112.204 25.2745 111.523 25.1421 110.842 24.9908C110.161 24.8206 109.537 24.5937 108.97 24.31C108.403 24.0074 107.949 23.6008 107.608 23.0902C107.268 22.5607 107.098 21.8609 107.098 20.991C107.098 20.0832 107.353 19.2889 107.864 18.6081C108.374 17.9273 109.093 17.4072 110.02 17.0479C110.965 16.6696 112.081 16.4805 113.367 16.4805C114.35 16.4805 115.343 16.6034 116.346 16.8493C117.367 17.0762 118.199 17.4072 118.842 17.8422L117.679 19.9981C116.998 19.5442 116.289 19.2322 115.551 19.062C114.814 18.8918 114.076 18.8067 113.339 18.8067C112.147 18.8067 111.258 19.0052 110.672 19.4024C110.086 19.7806 109.793 20.2723 109.793 20.8775C109.793 21.3881 109.963 21.7853 110.303 22.069C110.663 22.3337 111.117 22.5417 111.665 22.693C112.232 22.8443 112.856 22.9767 113.537 23.0902C114.218 23.1847 114.899 23.3171 115.58 23.4873C116.261 23.6386 116.875 23.8561 117.424 24.1398C117.991 24.4235 118.445 24.8206 118.785 25.3312C119.145 25.8419 119.324 26.5227 119.324 27.3737C119.324 28.2815 119.059 29.0663 118.53 29.7282C118 30.3901 117.253 30.9102 116.289 31.2884C115.324 31.6478 114.171 31.8274 112.828 31.8274Z" fill="#161616"></path></svg>